<?xml version="1.0" standalone="no"?><!DOCTYPE svg PUBLIC "-//W3C//DTD SVG 1.1//EN" "http://www.w3.org/Graphics/SVG/1.1/DTD/svg11.dtd"><svg t="1725377242395" class="icon" viewBox="0 0 1024 1024" version="1.1" xmlns="http://www.w3.org/2000/svg" p-id="1452" xmlns:xlink="http://www.w3.org/1999/xlink" width="200" height="200"><path d="M32.416 520.544l-3.424-1.696a44.576 44.576 0 0 1-17.92-18.784 65.472 65.472 0 0 1-8.544-32l0.864-5.536c0-8.544 2.144-16.224 5.984-23.456l3.424-6.4c1.696-3.424 4.256-6.4 6.4-9.376a11.328 11.328 0 0 0 2.144-10.24L19.2 406.24a89.344 89.344 0 0 1-4.256-25.6l-1.28-5.12c0-9.376 2.56-18.784 8.544-25.6l4.256-5.536c2.976-4.256 7.68-6.816 12.8-8.544 4.256-1.28 7.264-5.536 7.68-10.656l0.864-14.496c0-11.52 5.536-22.176 14.08-29.856l10.24-7.68a28.48 28.48 0 0 0 5.984-7.68 10.88 10.88 0 0 0 2.144-8.544c-0.864-4.256 0-5.536 2.144-5.984 6.816 2.56 11.104 1.696 14.08-1.696l5.536-7.264 15.36-17.056a17.12 17.12 0 0 0 3.424-17.92l-5.12-11.104c-0.864-2.56 0-5.536 2.144-6.4 5.536 0 9.376 2.144 11.104 5.536l1.696 2.976c2.56 5.12 8.544 7.68 12.8 5.536 9.376-3.424 17.056-4.256 24.32-4.256h13.664c9.376 0 17.056-6.4 18.784-16.224 1.696-11.936 5.984-21.344 11.936-27.744 6.4-7.264 13.664-12.8 22.176-17.056 11.104-5.984 17.92-14.496 20.064-25.6 2.976-13.664 10.24-23.456 20.064-29.856l32.416-18.336 9.376-5.536c5.536-3.424 10.656-7.68 14.944-12.8l8.544-10.24a29.568 29.568 0 0 1 13.664-8.544c4.256-1.28 10.24-2.144 15.36-1.696l17.056 1.28c8.544 0 15.36 2.144 22.176 5.12l4.256 2.144c4.256 1.696 8.544 0.864 10.656-2.144l3.84-2.144 18.336-19.2c4.256-4.256 9.376-5.984 14.944-5.12s11.104 2.976 16.224 5.536c7.68 4.256 14.08 5.984 21.344 5.984h4.256c9.376 0 18.784 1.28 28.16 3.424l6.4 1.696c6.4 1.696 12.8-0.864 17.056-5.984a3.872 3.872 0 0 1 5.984-0.864c1.28 0.864 1.696 1.696 2.144 2.976 0.864 8.544 5.984 14.944 12.8 17.056l6.816 2.144c7.264 2.144 13.664 6.816 17.92 12.8 4.256 6.4 9.376 12.8 15.36 17.056l4.256 4.256a20.48 20.48 0 0 0 16.224 5.536h25.184c10.24 0 20.064 1.696 29.856 5.984 9.376 4.256 19.2 5.12 28.16 1.696 9.376-2.976 19.2-4.256 29.024-2.976l18.336 2.976c8.544 0.864 17.056 5.12 22.176 11.52l2.144 2.144c4.256 4.256 8.544 9.824 12.8 15.776 2.56 5.536 8.544 8.544 14.496 8.544h26.464c6.4 0 12.8 1.28 17.92 4.256 5.536 4.256 10.24 8.544 14.496 12.8l4.256 5.536c5.12 5.984 7.68 14.08 7.264 22.624 0 6.816 5.12 12.8 11.936 12.8l8.544 0.864c5.984 0 11.104 4.256 14.08 9.824l4.256 8.544 11.104 24.736a24.48 24.48 0 0 1 1.696 11.936c0 4.256 1.28 7.68 4.256 9.376l4.256 2.976a19.264 19.264 0 0 1 7.68 17.92l-2.976 20.064-0.864 8.544a13.984 13.984 0 0 0 5.12 12.8 20.48 20.48 0 0 1 9.824 16.224v8.544c0 4.256-0.864 9.376-4.256 12.8a20.992 20.992 0 0 0-4.256 12.8l1.28 9.824c0 6.816 4.256 12.8 8.544 17.056a25.92 25.92 0 0 1 10.24 17.92c1.696 10.656 2.144 19.2 2.144 27.744v9.824c0 3.424 0 6.816 1.28 10.24a14.464 14.464 0 0 0 5.536 7.68l8.544 6.4c8.544 5.536 14.496 12.8 17.92 22.624 4.256 9.376 5.536 19.2 5.536 29.024v3.424c0 7.68-0.864 15.776-3.424 23.04a30.304 30.304 0 0 0 1.28 21.344c3.424 5.984 5.536 12.8 6.4 20.064 1.696 8.544 0.864 17.056-2.144 23.904l-0.864 2.976a38.4 38.4 0 0 1-9.824 13.664c-4.256 4.256-8.544 6.816-11.104 9.824-2.56 2.56-4.256 6.816-2.976 10.656l1.28 5.984a48.32 48.32 0 0 1 0 24.736v3.424c-1.696 6.4-4.256 11.936-6.816 17.056a30.848 30.848 0 0 1-12.8 12.8l-6.4 4.256a11.136 11.136 0 0 0-5.12 9.376 16.256 16.256 0 0 1-4.256 11.104l-6.4 8.544c-4.256 5.536-9.824 10.24-15.776 12.8a92.448 92.448 0 0 0-14.944 12.8c-4.256 5.12-7.68 11.104-9.376 17.056a14.4 14.4 0 0 1-14.08 11.936h-23.04c-5.984 0-11.52 4.256-14.08 9.376-2.976 6.816-5.984 11.52-9.824 15.776a34.336 34.336 0 0 0-8.544 15.36c-0.864 5.12-5.12 8.544-9.376 6.816a10.624 10.624 0 0 0-13.664 4.256c-5.12 8.544-10.24 14.944-15.776 20.48l-2.976 2.56c-5.536 4.256-12.8 7.68-19.2 7.68-7.68 0-11.52 3.424-12.8 8.544a78.4 78.4 0 0 0-2.56 14.496c-0.864 5.12-2.56 9.824-4.256 14.08l-2.144 2.56c-4.256 6.4-7.68 12.8-11.936 18.336l-1.696 2.56c-5.536 7.264-12.8 12.8-21.344 14.944-10.24 3.424-19.2 4.256-28.16 4.256h-5.984c-4.256 0-8.544 2.56-11.52 6.816l-2.56 4.256-2.56 5.12-5.536 9.376a31.424 31.424 0 0 1-19.2 15.36 97.28 97.28 0 0 1-27.296 2.56l-6.816-0.864c-5.984 0-11.52-1.696-17.056-4.256a10.976 10.976 0 0 0-12.8 4.256 28.224 28.224 0 0 1-14.944 11.104l-12.8 4.256a56.96 56.96 0 0 1-26.88 0l-6.816-2.144c-4.256 0-8.544-2.144-11.936-4.256a23.072 23.072 0 0 0-12.8-2.56l-5.536 0.864a63.04 63.04 0 0 1-23.904-2.144l-11.52-2.56a24.192 24.192 0 0 1-12.8-9.824 16.8 16.8 0 0 0-12.8-8.544h-13.664c-8.544-1.28-16.224-4.256-21.344-10.656l-17.056-16.224-5.984-5.12-9.376-6.816-5.536-4.256a50.56 50.56 0 0 0-22.176-8.544l-25.6-4.256c-2.56 0-4.256-0.864-6.816-1.28l-9.824-2.144c-4.256-0.864-8.544-4.256-11.52-8.544-2.56-4.256-7.264-5.984-11.52-4.256-8.544 3.424-15.36 4.256-22.176 5.536h-5.984a62.24 62.24 0 0 1-31.584-5.536c-10.24-4.256-17.056-10.656-23.456-18.784-5.12-7.264-12.8-12.8-22.176-14.496l-11.936-2.56a69.024 69.024 0 0 1-24.736-10.24 46.08 46.08 0 0 1-16.224-18.336 51.616 51.616 0 0 1-5.984-21.344v-3.424a21.056 21.056 0 0 0-14.944-18.336 61.792 61.792 0 0 1-23.456-12.8 30.208 30.208 0 0 1-9.376-22.176l0.864-18.784c0-7.264-2.144-13.664-7.264-18.336-5.12-5.12-8.544-11.52-8.544-18.336l-1.28-15.36a227.072 227.072 0 0 0-5.536-33.28c-2.56-9.824 1.28-19.616 9.376-24.32l2.976-2.144a10.592 10.592 0 0 0 3.424-13.664l-3.424-4.256a32.16 32.16 0 0 0-12.8-8.544c-3.424-0.864-4.256-4.256-4.256-6.4l4.256-5.12a8.32 8.32 0 0 0 0-10.24 19.296 19.296 0 0 1-5.536-11.936l-0.864-29.856c0-5.984 0.864-11.936 2.56-17.92 1.696-5.12 0-11.104-5.12-13.216z m422.4-56.32c2.976-2.976 2.56-8.544 0-10.656a42.08 42.08 0 0 1-9.824-11.52l-4.256-6.816a61.408 61.408 0 0 0-11.104-14.496l-0.864-0.864a36.928 36.928 0 0 1-9.824-12.8 13.536 13.536 0 0 1 0-12.8l2.56-4.256a31.904 31.904 0 0 0 4.256-15.36v-1.696a25.376 25.376 0 0 0-4.256-12.8 49.12 49.12 0 0 1-4.256-11.936v-2.56c-1.28-5.12 0-10.656 3.424-14.944 3.424-5.536 5.984-10.656 7.264-17.056v-0.864c1.696-4.256 0.864-9.824-1.696-14.08s-3.424-8.544-1.696-13.664l2.976-8.544c2.56-7.68 6.4-14.496 11.52-20.48l5.984-6.4 4.256-5.12 2.56-2.56a8.32 8.32 0 0 0 0.864-10.24c-2.144-4.256-3.424-8.544-2.56-12.8l0.864-5.984c1.28-8.544 4.256-17.056 9.824-23.904l1.696-1.696c6.4-8.544 14.496-14.08 23.904-17.056l11.52-4.256c5.12-1.696 8.544-7.264 8.544-12.8 0-6.816 2.144-12.8 5.984-18.336l2.144-2.144c4.256-7.264 9.376-14.496 12.8-22.176l2.976-5.536a8.096 8.096 0 0 0 1.28-4.256c0-7.264-4.256-13.664-11.104-14.08l-18.784-1.28c-10.656-0.864-21.344 0-31.584 0l-36.256 4.256c-5.536 0-9.824 4.256-10.24 10.24a13.824 13.824 0 0 1-9.376 12.8l-15.36 4.256-4.256 1.28-12.8 4.256a35.2 35.2 0 0 0-21.344 19.2l-3.424 5.536a52.48 52.48 0 0 1-20.48 22.624c-8.544 5.536-12.8 14.496-13.664 24.736v4.256c-0.864 8.544-3.424 17.056-8.544 23.04l-2.144 3.424a13.952 13.952 0 0 0-2.144 14.496c2.144 5.12 3.424 10.656 2.976 16.224v22.624a14.368 14.368 0 0 1-8.544 12.8 18.24 18.24 0 0 0-11.52 12.8l-2.144 8.544a21.44 21.44 0 0 0 8.544 22.176c6.816 5.12 11.104 12.8 12.8 22.176v7.68c1.28 8.544 5.984 17.056 13.664 21.344 7.68 5.12 13.664 12.8 17.056 21.344l2.144 6.816a23.264 23.264 0 0 0 19.616 15.776h2.56c7.68 0 14.496 4.256 18.784 11.104s11.104 11.52 18.784 12.8l11.936 3.424c7.264 2.144 14.08 5.984 19.616 11.52l0.864 0.864a10.816 10.816 0 0 0 14.944-1.696z m48.64-39.264c4.256 2.56 8.544 1.28 10.24-2.56l1.28-2.144c2.976-5.984 6.816-11.936 11.104-17.056l8.544-12.8c1.28 0 1.696-0.864 2.144-1.696l10.24-13.664c4.256-4.256 9.376-7.264 15.36-7.264a13.76 13.76 0 0 0 12.8-8.544c1.696-5.984 4.256-11.52 9.376-16.224l2.144-2.56c4.256-4.256 8.544-6.4 12.8-8.544 5.536-0.864 10.656-1.696 15.776-1.696h12.8c5.12 0 9.376-2.144 11.936-6.4s6.4-7.264 10.656-9.376l4.256-1.696a78.08 78.08 0 0 1 22.176-5.984l8.544-0.864c5.12 0 10.656 0 15.776 2.976 4.256 2.976 9.824 2.56 14.08-0.864l2.976-1.696c6.4-4.256 13.664-7.68 21.344-8.544h0.864c8.544-1.696 16.224-1.696 24.736-1.28h4.256c8.544 1.28 15.776 4.256 21.344 10.656l1.28 1.696c4.256 4.256 11.104 7.68 17.056 7.68h7.264a6.208 6.208 0 0 0 5.536-2.976c1.28-1.28 3.424-2.56 5.536-2.56h4.256c5.984 0 11.52 1.696 17.056 3.424l7.264 2.976c6.816 2.144 14.08 4.256 21.344 5.12h5.12c3.424 0 5.536-2.144 5.536-5.12a22.752 22.752 0 0 0-2.976-11.936l-2.976-6.816c-3.424-5.536-5.984-11.52-8.544-17.056l-0.864-2.144a13.536 13.536 0 0 1 0-12.8v-2.144a7.264 7.264 0 0 0-4.256-8.544h-3.424a34.08 34.08 0 0 1-17.056-11.52l-4.256-4.256c-4.256-4.256-6.816-10.656-8.544-17.056-2.144-5.536-6.816-9.824-12.8-9.824h-17.92a23.52 23.52 0 0 1-15.776-9.376l-1.696-2.144a58.56 58.56 0 0 1-7.264-14.496c-2.144-4.256-6.816-6.816-11.104-5.536l-5.12 1.696a59.616 59.616 0 0 1-25.6 3.424l-6.816-0.864c-7.264 0-14.08-2.976-19.616-7.264l-4.256-2.976a53.76 53.76 0 0 0-10.656-5.984c-4.256-1.696-7.68-0.864-10.24 2.144l-2.144 2.56a30.144 30.144 0 0 1-16.224 8.544l-23.04 1.28a16.96 16.96 0 0 0-11.52 5.12 25.28 25.28 0 0 1-11.52 5.984h-0.864c-4.256 0-8.544 2.976-12.8 5.984v0.864a21.696 21.696 0 0 1-15.36 6.4l-1.696 0.864c-5.12 0-10.24 0-15.36 1.28h-5.12c-7.264 1.28-12.8 7.264-14.496 14.944l-1.696 9.824c-1.28 6.816-4.256 12.8-8.544 18.336-4.256 5.12-9.376 8.544-15.776 8.544h-7.264c-4.256 0.864-8.544 5.536-7.68 10.656 0.864 7.264 0 13.664-1.28 20.064l-1.696 7.264a19.808 19.808 0 0 1-11.52 13.664l-2.56 1.28h-0.864c-2.56 1.696-4.256 5.536-2.144 8.544a20.16 20.16 0 0 1 2.976 12.8l-1.28 13.664c0 5.12-2.144 9.824-4.256 14.08a13.728 13.728 0 0 0-0.864 12.8l4.256 9.376c2.144 4.256 2.56 8.544 1.28 13.664-1.28 4.256-2.144 8.544-1.696 12.8 0 4.256 2.56 8.544 5.984 10.24l0.864 0.864z m337.088 308.48c4.256 4.256 10.656 5.984 15.776 2.56l8.544-5.536a24.096 24.096 0 0 0 9.376-12.8V716.8l4.256-12.8 2.56-4.256 1.696-4.256 1.696-2.976a13.248 13.248 0 0 1 8.544-7.264l1.696-0.864c3.424-0.864 5.536-4.256 5.536-7.68 0-4.256 2.144-7.68 4.256-10.656l3.424-2.976 8.544-11.104v-0.864c2.56-3.424 4.256-7.264 5.12-11.52s0-8.544-1.696-12.8l-0.864-1.696a39.168 39.168 0 0 1-2.976-11.104l-1.28-11.936-1.28-12.8c0-4.256 1.696-8.544 4.256-12.8a41.6 41.6 0 0 0 6.816-11.936v-1.696l0.864-0.864c0.864-4.256-1.28-8.544-5.12-8.544-4.256-2.144-8.544-5.536-9.824-10.656l-1.28-2.56a85.664 85.664 0 0 1-3.424-23.04l0.864-21.344v-1.28c0-7.264-5.984-12.8-12.8-12.8h-0.864a28.288 28.288 0 0 1-21.344-8.544l-3.424-4.256-8.544-9.824-11.104-12.8a100.608 100.608 0 0 0-14.08-16.224c-4.256-4.256-10.656-8.544-17.056-9.376l-8.544-1.28a45.152 45.152 0 0 1-14.496-5.984c-3.424-2.56-8.544-1.696-11.936 1.696l-5.536 5.984-2.56 1.696c-2.976 0.864-5.984-0.864-7.264-4.256a21.504 21.504 0 0 1 0.864-16.224v-2.56c0-2.976-2.56-5.12-5.12-4.256h-6.816c-7.68 0-15.36-0.864-22.624-4.256l-4.256-1.696a32.384 32.384 0 0 0-14.08-3.424 24.096 24.096 0 0 0-12.8 3.424l-1.696 1.28c-5.12 3.424-11.104 5.12-17.056 5.536h-14.08c-6.4 0-12.8 2.144-17.056 5.536a53.44 53.44 0 0 1-17.92 6.816l-11.52 1.696a39.04 39.04 0 0 0-15.36 7.264c-4.256 4.256-10.24 6.816-15.776 8.544l-2.144 0.864c-6.816 2.144-12.8 6.4-17.056 12.8l-5.12 5.12a11.584 11.584 0 0 0 0 13.664c2.56 4.256 7.68 5.536 12.8 4.256l6.4-2.56c3.424-1.28 7.264 0 10.24 1.696 2.56 2.144 6.4 3.424 10.24 2.976l10.656-1.28c5.984 0 11.936 0 17.92 1.696 6.4 2.144 11.936 4.256 17.056 8.544s10.656 5.984 17.056 6.816 12.8 2.144 18.784 4.256l4.256 0.864c4.256 1.28 7.68 4.256 10.24 8.544a26.848 26.848 0 0 1 4.256 12.8v1.28c0 5.12 4.256 8.544 8.544 8.544h2.56c6.816 0 14.08 0.864 21.344 2.976l2.976 1.28a24.64 24.64 0 0 1 11.52 8.544c3.424 4.256 5.536 8.544 6.816 12.8l1.28 5.984c1.28 6.4 1.696 12.8 1.696 19.616v2.144c0 4.256 2.976 8.544 7.68 10.24 4.256 0.864 9.376 2.56 14.08 5.12l2.144 0.864c5.536 3.424 11.104 7.68 15.36 12.8l2.144 2.976c5.536 6.4 8.544 14.496 8.544 22.624v2.976c0 6.4-1.28 12.8-3.424 18.784-1.696 5.12 0 11.104 5.536 12.8l2.976 2.144c6.4 2.56 11.936 7.264 16.224 12.8 4.256 6.4 5.984 13.664 5.984 21.344v12.8c-0.864 4.256-2.144 7.68-4.256 10.656s-2.144 7.264 0 10.24z m-273.088-218.464h-0.864c-1.696 0-2.56 2.144-2.144 4.256l1.696 8.544c1.696 6.816 2.56 13.664 3.424 20.48s4.256 12.8 9.376 17.056h1.696c6.4 5.12 10.24 12.8 10.656 20.48v21.344a14.72 14.72 0 0 0 2.56 11.936l2.144 2.144c4.256 5.12 5.984 11.104 6.4 17.056l1.28 23.456c0 5.536-3.424 10.24-8.544 11.104l-4.256 0.864c-2.976 0-4.256 3.424-4.256 6.4 0 3.424 1.28 7.264 2.56 10.656v0.864c1.28 4.256 1.696 8.544 1.28 12.8l-1.696 11.52a79.136 79.136 0 0 1-8.544 23.904l-2.976 5.12a18.528 18.528 0 0 1-8.544 8.544 14.4 14.4 0 0 0-8.544 9.376l-3.424 15.36a95.488 95.488 0 0 1-11.104 25.6h-0.864c-5.12 6.816-11.52 12.8-19.2 17.056l-5.12 3.424-12.8 6.4c-4.256 1.696-6.816 5.536-7.68 10.24l-2.144 14.08c-1.28 8.544-4.256 15.776-10.24 21.344l-5.536 6.4-6.4 6.4-6.4 6.816c-5.12 5.984-12.8 8.544-21.344 7.264l-15.36-2.976-14.08-1.696h-3.84c-1.696 1.696-2.144 4.256-0.864 6.816 2.976 5.12 7.68 8.544 12.8 8.544l9.376 1.696c4.256 0 9.376 2.144 13.664 4.256 4.256 2.976 8.544 5.12 13.664 6.4h0.864c5.536 2.144 11.52 2.56 17.056 2.144l6.4-0.864c7.264-0.864 14.08 0 20.064 2.56l5.12 1.696c2.144 0.864 5.536 0 7.68-2.144 2.56-2.56 5.12-4.256 8.544-5.536l3.424-0.864c5.536-1.696 11.104-2.56 17.056-2.56h3.424c5.12 0 9.824 0.864 14.08 3.424l1.696 0.864c2.976 1.28 6.4 0 8.544-2.56a26.656 26.656 0 0 1 7.264-8.544l10.656-7.264 10.24-6.4a27.904 27.904 0 0 1 15.36-4.256l15.36-1.28a15.584 15.584 0 0 0 12.8-11.104c1.696-6.4 4.256-12.8 8.544-18.336s8.544-10.24 12.8-14.496a30.88 30.88 0 0 1 17.056-6.816h3.424a14.272 14.272 0 0 0 11.52-14.496v-28.576c0.864-4.256 2.56-9.824 5.12-14.08l8.544-12.8 3.424-4.256c2.56-2.144 4.256-5.12 7.264-8.544l4.256-5.536a11.52 11.52 0 0 0-0.864-13.664 28.416 28.416 0 0 1-7.264-16.224v-1.696a51.744 51.744 0 0 1 1.28-21.344v-2.144c2.144-5.536 5.12-11.104 8.544-16.224a9.6 9.6 0 0 0-1.28-13.664l-7.264-6.4a31.616 31.616 0 0 1-10.24-20.48l-0.864-8.544c0-2.56 0-5.536-0.864-8.544l-0.864-6.4c-0.864-7.264-5.12-12.8-11.104-17.056l-2.976-0.864c-4.256-2.56-8.544-6.4-11.936-11.52-3.424-4.256-5.12-10.24-6.4-16.224l-1.28-7.264c0-2.56-1.696-4.256-4.256-5.536l-20.48-6.4c-4.256-0.864-8.544-4.256-11.52-7.264h-0.864a6.08 6.08 0 0 0-9.376-0.864l-4.256 4.256c-0.864 1.28-1.696 1.696-2.976 1.28-2.56 0-4.256-2.144-3.424-4.256a19.296 19.296 0 0 0-7.264-17.92l-5.536-4.256-12.8-8.544c-3.424-1.28-8.544 0-10.24 4.256l-1.696 2.56c0 0.864-1.28 1.28-1.696 1.696-1.696 0-4.256 0-4.256-2.144l-1.28-2.144c-1.28-2.56-4.256-4.256-6.816-5.12z m-51.2 42.688l-2.144-2.144c-2.144-1.696-4.256-1.28-6.4 0.864-2.976 5.12-5.536 10.656-6.816 16.224v0.864c-1.28 5.536-6.4 9.376-11.52 8.544h-5.12a10.912 10.912 0 0 0-10.656 11.104c0 7.68-2.56 15.36-7.264 21.344l-2.56 2.56a35.968 35.968 0 0 1-17.056 11.52l-3.424 0.864a11.488 11.488 0 0 0-8.544 9.376c0 4.256-2.56 8.544-5.984 11.936l-4.256 3.424c-5.12 5.536-12.8 8.544-20.48 9.376l-21.344 2.144c-6.816 0-12.8 4.256-17.056 10.656s-10.656 10.656-17.056 11.52l-9.376 0.864c-6.816 0.864-14.08 0.864-21.344-0.864l-4.256-0.864-11.52-2.976a9.152 9.152 0 0 0-10.24 2.976l-4.256 5.536a24.864 24.864 0 0 1-21.344 8.544l-27.744-3.424c-4.256 0-7.68-2.144-11.52-4.256a51.072 51.072 0 0 1-10.24-8.544l-10.656-12.8a7.712 7.712 0 0 0-5.536-0.864l-5.984 2.56-23.904 5.984c-4.256 1.28-9.824 0-14.08-2.56-4.256-3.424-9.376-4.256-14.496-4.256h-5.536c-5.12 1.28-8.544 6.816-6.816 11.936l1.696 8.544c1.28 4.256 0.864 9.376-1.28 13.664s-1.696 8.544 1.28 12.8l2.56 3.424c3.424 5.12 8.544 9.376 12.8 13.664s8.544 8.544 11.936 14.08l6.4 11.52a16.96 16.96 0 0 0 15.36 9.376c6.4 0 12.8 2.144 17.92 6.4l12.8 11.936c3.424 2.976 8.544 3.424 11.936 0.864l2.144-0.864c2.56 0 4.256 1.696 4.256 4.256v2.144c0 5.536 4.256 10.656 9.824 12.8l19.2 4.256c6.816 2.144 13.664 4.256 20.064 8.544h3.424a6.08 6.08 0 0 0 5.984-6.816v-14.944c0-4.256 1.696-8.544 5.12-10.24l2.144-0.864c2.144 0.864 4.256 2.56 3.424 4.256v7.264c0 5.536 1.696 10.656 5.536 14.496 4.256 4.256 9.824 5.12 14.496 3.424 5.12-2.144 10.24-2.56 15.776-2.144l15.776 0.864c7.68 0.864 14.944 0 21.344-2.976 7.68-2.56 14.08-5.984 20.064-10.656l2.56-1.696 12.8-11.52a21.472 21.472 0 0 1 14.944-6.4h17.056a19.904 19.904 0 0 0 17.056-17.056l1.696-8.544c0-5.536 2.56-10.656 6.4-14.944a37.76 37.76 0 0 1 12.8-8.544l5.12-2.144a27.68 27.68 0 0 0 15.36-17.056l2.56-10.24c2.144-8.544 6.4-17.056 12.8-22.624l0.864-0.864c5.12-4.256 5.984-12.8 2.56-18.784l-1.28-2.976a17.92 17.92 0 0 1-1.28-16.224c2.144-5.984 4.256-11.104 7.68-16.224l4.256-5.984c1.696-3.424 1.696-8.544-0.864-11.52a20.384 20.384 0 0 1-4.256-11.936l-0.864-5.984v-14.496a31.616 31.616 0 0 0-1.28-14.08l-1.696-5.12z m-60.992-32.448v-1.28c0-4.256-2.56-6.816-5.984-6.816h-11.104a27.712 27.712 0 0 1-11.936 0h-19.2c-9.824 0-19.2-1.696-28.576-4.256l-10.24-2.56-8.544-2.56-19.2-6.4a36.256 36.256 0 0 1-22.624-19.2l-2.144-4.256a14.368 14.368 0 0 0-15.776-8.544c-7.264 0-14.496 0-21.344-3.424l-5.12-2.144c-9.824-4.256-17.056-12.8-17.056-24.32l-1.696-11.52c-1.28-5.984-5.12-11.52-10.24-13.664a97.152 97.152 0 0 1-17.056-9.824l-2.144-1.28a47.04 47.04 0 0 1-14.944-20.064l-0.864-2.56a40.16 40.16 0 0 1-0.864-21.344l0.864-2.56c1.696-5.536 2.144-11.104 2.144-17.056 0-5.12-2.144-10.24-5.984-14.08l-5.984-5.536a30.976 30.976 0 0 1-11.52-22.624 95.968 95.968 0 0 1 0.864-27.296v-2.56a8.544 8.544 0 0 0-8.544-8.544h-1.28a14.464 14.464 0 0 0-12.8 8.544 51.456 51.456 0 0 1-9.376 15.36l-1.696 2.144-12.8 12.8c-4.256 4.256-6.816 10.656-7.68 17.056s-2.56 12.8-5.12 18.784l-0.864 2.144a29.44 29.44 0 0 1-9.824 12.8 18.368 18.368 0 0 0-7.264 13.664l-0.864 19.616c0 8.544-1.28 17.056-4.256 25.6l-0.864 3.424c-2.144 5.536 0 11.52 5.12 14.08l17.92 7.68 1.696 0.864c1.28 0 1.696 0.864 2.144 2.144 1.28 1.696 0 4.256-1.28 4.256l-4.256 2.144c-2.56 0.864-4.256 3.424-5.12 6.4l-0.864 4.256v0.864l-4.256 23.904c-0.864 3.424-0.864 7.264-0.864 11.104 0 3.424 2.144 6.4 5.12 7.68l9.376 4.256c4.256 2.56 9.376 5.536 12.8 8.544l4.256 3.424c1.28 1.696 3.424 3.424 5.12 4.256l1.696 1.696c2.976 2.56 5.12 5.984 5.984 9.824l4.256 19.2c0 5.12 4.256 9.376 8.544 10.656l6.816 2.144s1.28 0 2.144 0.864l8.544 2.56c6.816 2.144 12.8 5.984 17.92 11.104 5.12 4.256 10.24 9.824 14.496 15.776l1.696 1.696c3.424 4.256 8.544 6.4 13.664 5.12s10.656-1.696 16.224-1.696h6.4c4.256 0 9.824 1.28 14.496 4.256 4.256 2.56 9.824 4.256 14.944 6.4h1.28c5.12 2.144 10.656 1.28 14.944-1.696a24.608 24.608 0 0 1 15.36-5.12l20.064 1.28c4.256 0 8.544-0.864 10.656-4.256h0.864l7.264-6.816 2.144-2.144c3.424-4.256 8.544-5.984 13.664-6.4h19.2c5.12 0 9.824-4.256 11.936-8.544s6.4-7.68 11.52-8.544l8.544-1.696c3.424 0 6.4-2.976 7.68-6.816a21.216 21.216 0 0 1 6.4-10.24l6.816-6.816c4.256-4.256 6.4-8.544 6.4-13.216z" fill="#AD2C27" p-id="1453"></path></svg>