<?xml version="1.0" standalone="no"?><!DOCTYPE svg PUBLIC "-//W3C//DTD SVG 1.1//EN" "http://www.w3.org/Graphics/SVG/1.1/DTD/svg11.dtd"><svg t="1652275920290" class="icon" viewBox="0 0 2491 1024" version="1.1" xmlns="http://www.w3.org/2000/svg" p-id="3695" xmlns:xlink="http://www.w3.org/1999/xlink" width="486.5234375" height="200"><defs><style type="text/css">@font-face { font-family: feedback-iconfont; src: url("//at.alicdn.com/t/font_1031158_u69w8yhxdu.woff2?t=1630033759944") format("woff2"), url("//at.alicdn.com/t/font_1031158_u69w8yhxdu.woff?t=1630033759944") format("woff"), url("//at.alicdn.com/t/font_1031158_u69w8yhxdu.ttf?t=1630033759944") format("truetype"); }
</style></defs><path d="M2032.708267 372.292267v388.027733c0 81.1008-68.676267 146.432-152.951467 146.432a33.621333 33.621333 0 0 1-33.9968-33.245867c0-18.363733 15.223467-33.245867 33.9968-33.245866 47.138133 0 84.992-35.976533 84.992-79.940267v-131.8912l-89.361067 34.952533c-17.408 6.826667-37.205333-1.467733-44.202666-18.5344a33.006933 33.006933 0 0 1 18.944-43.2128l114.5856-44.817066v-184.5248h-118.954667a33.621333 33.621333 0 0 1-33.9968-33.245867c0-18.363733 15.223467-33.245867 33.9968-33.245867h118.954667V206.062933c0-18.363733 15.223467-33.245867 33.9968-33.245866s33.9968 14.882133 33.9968 33.245866v99.7376h305.493333c65.877333 0 119.3984 51.882667 119.3984 116.053334v252.5184c0 64.170667-53.521067 116.053333-119.432533 116.053333h-98.235734c-65.877333 0-119.432533-51.882667-119.432533-116.053333v-215.995734a33.792 33.792 0 0 1 33.9968-33.655466 33.792 33.792 0 0 1 33.9968 33.655466v215.995734c0 27.306667 22.9376 49.5616 51.438933 49.5616H2338.133333c28.501333 0 51.438933-22.254933 51.438934-49.5616v-252.5184c0-27.306667-22.9376-49.5616-51.438934-49.5616h-305.4592z m-767.146667 195.584c-10.6496 76.4928-26.862933 141.346133-46.933333 195.345066-10.8544 29.252267-22.254933 53.589333-33.518934 73.352534-7.0656 12.424533-12.834133 20.821333-16.5888 25.531733a31.8464 31.8464 0 0 1-44.9536 4.778667 32.290133 32.290133 0 0 1-4.778666-45.226667 206.916267 206.916267 0 0 0 10.8544-17.066667c9.557333-16.725333 19.456-37.922133 29.0816-63.8976 18.432-49.5616 33.450667-109.841067 43.485866-181.725866 5.4272-38.912 11.4688-96.1536 18.1248-171.690667h-100.6592a32.085333 32.085333 0 0 1-31.9488-32.187733c0-17.749333 14.301867-32.1536 31.9488-32.1536h106.154667c3.310933-40.618667 6.7584-85.435733 10.376533-134.3488a32.0512 32.0512 0 0 1 34.235734-29.696 32.085333 32.085333 0 0 1 29.525333 34.474666c-3.447467 46.933333-6.792533 90.112-10.001067 129.570134h253.405867a64.170667 64.170667 0 0 1 63.965867 64.341333l-16.008534 418.133333a64.170667 64.170667 0 0 1-63.931733 64.3072H1439.402667a32.085333 32.085333 0 0 1-31.9488-32.187733c0-17.749333 14.301867-32.1536 31.9488-32.1536h64.853333c12.9024 0 23.483733-10.24 23.995733-23.210667l14.1312-369.8688a24.064 24.064 0 0 0-23.9616-25.019733h-233.915733c-6.929067 79.394133-13.277867 139.605333-18.978133 180.6336z" fill="#DD1700" p-id="3696"></path><path d="M610.679467 749.3632a54.0672 54.0672 0 0 1 77.0048 0.1024c21.230933 21.504 21.162667 56.32-0.1024 77.789867l-94.583467 95.197866c-87.2448 87.825067-229.546667 89.088-318.2592 2.935467l-170.325333-168.379733c-86.698667-85.674667-95.368533-222.8224-13.755734-310.920534l152.098134-164.181333c80.9984-87.4496 230.263467-97.006933 322.833066-21.504l138.171734 112.64c23.415467 19.114667 27.067733 53.691733 8.192 77.346133-18.909867 23.620267-53.179733 27.306667-76.5952 8.226134l-138.171734-112.64c-48.401067-39.492267-133.12-34.065067-174.8992 11.0592l-152.132266 164.181333c-39.697067 42.9056-35.362133 111.957333 10.410666 157.218133l169.540267 167.594667a118.5792 118.5792 0 0 0 166.024533-1.467733l94.549334-95.232z" fill="#DD1700" p-id="3697"></path><path d="M380.928 654.097067a54.715733 54.715733 0 0 1-54.442667-54.9888c0-30.378667 24.405333-54.9888 54.4768-54.9888h401.544534c30.071467 0 54.442667 24.576 54.442666 54.954666 0 30.378667-24.3712 55.022933-54.442666 55.022934H380.962133z" fill="#DD1700" p-id="3698"></path><path d="M456.157867 51.541333a54.0672 54.0672 0 0 1 76.970666-2.56c21.947733 20.718933 23.074133 55.534933 2.56 77.7216L170.1888 521.216c-39.7312 42.871467-35.396267 111.957333 10.376533 157.184l168.789334 166.843733c21.504 21.265067 21.845333 56.081067 0.8192 77.789867a54.0672 54.0672 0 0 1-76.970667 0.8192l-168.823467-166.877867c-86.698667-85.674667-95.3344-222.856533-13.7216-310.920533L456.157867 51.541333z" fill="#DD1700" p-id="3699"></path></svg>